<?xml version="1.0" encoding="utf-8"?>
<!-- Generator: Adobe Illustrator 15.0.0, SVG Export Plug-In . SVG Version: 6.00 Build 0)  -->
<!DOCTYPE svg PUBLIC "-//W3C//DTD SVG 1.1//EN" "http://www.w3.org/Graphics/SVG/1.1/DTD/svg11.dtd">
<svg version="1.1" id="Layer_1" xmlns="http://www.w3.org/2000/svg" xmlns:xlink="http://www.w3.org/1999/xlink" x="0px" y="0px"
	 width="475px" height="86px" viewBox="0 0 475 86" enable-background="new 0 0 475 86" xml:space="preserve">
<g>
	<g>
		<g>
			<path d="M75.478,85.395h9.579c0.052-0.08,0.105-0.158,0.156-0.236V65.9C83.323,73.102,79.965,79.715,75.478,85.395z"/>
			<path d="M44.553,33.325l-0.007,3.819c-3.096-2.248-6.898-3.578-11.007-3.578c-10.356,0-18.779,8.425-18.779,18.778
				c0,10.355,8.423,18.781,18.779,18.781c10.354,0,18.776-8.426,18.776-18.781V35.545c3.997,4.461,6.435,10.351,6.435,16.798
				c0,13.902-11.313,25.213-25.21,25.213c-13.902,0-25.211-11.313-25.211-25.213c0-13.898,11.309-25.208,25.211-25.208
				c2.299,0,4.524,0.312,6.646,0.892V20.04c-2.146-0.441-4.37-0.676-6.646-0.676c-18.188,0-32.982,14.795-32.982,32.98
				c0,18.186,14.795,32.982,32.982,32.982c18.187,0,32.98-14.797,32.98-32.982c0-11.212-5.626-21.136-14.203-27.097v-7.476
				c12.245,6.678,20.573,19.671,20.573,34.573c0,13.84-7.183,26.031-18.016,33.049h12.221c8.384-8.512,13.567-20.188,13.567-33.049
				c0-19.313-11.683-35.945-28.348-43.216V2.336C68.389,8.395,80.8,21.984,85.212,38.785V19.534
				c-2.384-3.74-5.194-7.247-8.405-10.458c-3.245-3.243-6.791-6.069-10.572-8.47H44.553V33.325z M33.539,63.352
				c-6.069,0-11.012-4.938-11.012-11.008c0-6.066,4.938-11.006,11.012-11.006c6.066,0,11.007,4.938,11.007,11.006
				C44.546,58.414,39.608,63.352,33.539,63.352z"/>
			<path d="M0.425,73.584v11.811h11.776C7.489,82.342,3.466,78.309,0.425,73.584z"/>
			<path d="M85.213,8.714V0.605h-8.116C80.026,3.076,82.741,5.79,85.213,8.714z"/>
			<path d="M20.219,0.605H0.826C0.691,0.69,0.559,0.782,0.425,0.867v9.591C6.184,5.896,12.9,2.493,20.219,0.605z"/>
			<path d="M0.425,18.852v12.254c7.009-10.887,19.232-18.112,33.114-18.112c2.265,0,4.482,0.198,6.646,0.568V5.693
				c-2.172-0.309-4.39-0.473-6.646-0.473C20.642,5.222,8.942,10.429,0.425,18.852z"/>
		</g>
	</g>
	<g>
		<path d="M109.218,40.437c0,0.583-0.115,1.1-0.346,1.548c-0.231,0.449-0.546,0.828-0.944,1.138c-0.4,0.309-0.869,0.543-1.409,0.705
			c-0.541,0.162-1.125,0.243-1.755,0.243c-0.911,0-1.725-0.114-2.438-0.347c-0.716-0.229-1.365-0.645-1.949-1.24l1.519-1.518
			c0.382,0.382,0.822,0.646,1.316,0.792c0.495,0.146,1.021,0.22,1.586,0.22c0.698,0,1.226-0.127,1.586-0.379
			c0.36-0.253,0.54-0.622,0.54-1.105c0-0.438-0.124-0.776-0.371-1.012c-0.125-0.112-0.262-0.2-0.414-0.262
			c-0.151-0.062-0.368-0.115-0.649-0.16l-1.449-0.203c-1.023-0.146-1.801-0.478-2.328-0.995c-0.574-0.574-0.86-1.361-0.86-2.363
			c0-0.54,0.095-1.032,0.286-1.477c0.191-0.444,0.467-0.827,0.827-1.147c0.357-0.32,0.799-0.571,1.314-0.751
			c0.52-0.18,1.104-0.27,1.757-0.27c0.832,0,1.559,0.107,2.177,0.321c0.619,0.214,1.188,0.574,1.705,1.08l-1.485,1.468
			c-0.382-0.36-0.79-0.588-1.223-0.684c-0.435-0.096-0.848-0.144-1.24-0.144c-0.63,0-1.097,0.15-1.4,0.45
			c-0.303,0.3-0.456,0.659-0.456,1.077c0,0.159,0.028,0.312,0.084,0.458c0.059,0.147,0.146,0.283,0.271,0.408
			c0.124,0.113,0.278,0.211,0.465,0.296s0.402,0.145,0.649,0.178L106,36.965c0.551,0.079,1.006,0.194,1.366,0.346
			c0.358,0.151,0.67,0.345,0.929,0.581c0.326,0.303,0.562,0.668,0.708,1.094C109.145,39.415,109.218,39.896,109.218,40.437z"/>
		<path d="M119.739,41.93c-0.265,0.471-0.591,0.867-0.979,1.189c-0.388,0.318-0.829,0.561-1.324,0.715
			c-0.495,0.159-1.018,0.237-1.567,0.237c-0.664,0-1.264-0.112-1.799-0.339c-0.532-0.225-1.015-0.551-1.44-0.978
			c-0.304-0.302-0.538-0.625-0.7-0.969c-0.164-0.344-0.279-0.711-0.346-1.105c-0.067-0.393-0.107-0.815-0.118-1.265
			s-0.019-0.934-0.019-1.451s0.007-1.001,0.019-1.451c0.011-0.45,0.05-0.872,0.118-1.266c0.065-0.393,0.183-0.762,0.346-1.104
			c0.163-0.343,0.396-0.667,0.7-0.97c0.427-0.428,0.908-0.754,1.44-0.979c0.535-0.225,1.135-0.337,1.799-0.337
			c0.562,0,1.088,0.079,1.576,0.236c0.489,0.158,0.93,0.396,1.316,0.718c0.388,0.32,0.714,0.717,0.979,1.189
			c0.264,0.472,0.445,1.023,0.548,1.653h-2.379c-0.124-0.483-0.346-0.888-0.658-1.214c-0.315-0.326-0.771-0.489-1.367-0.489
			c-0.326,0-0.616,0.057-0.869,0.169c-0.253,0.112-0.464,0.265-0.633,0.456c-0.112,0.124-0.208,0.261-0.286,0.413
			c-0.08,0.152-0.142,0.352-0.187,0.599c-0.047,0.247-0.076,0.563-0.095,0.945c-0.017,0.382-0.023,0.86-0.023,1.434
			c0,0.573,0.008,1.052,0.023,1.435c0.019,0.383,0.048,0.697,0.095,0.945c0.045,0.248,0.105,0.447,0.187,0.599
			c0.078,0.151,0.174,0.29,0.286,0.413c0.169,0.191,0.38,0.344,0.633,0.457c0.253,0.111,0.542,0.168,0.869,0.168
			c0.596,0,1.052-0.164,1.367-0.489c0.313-0.325,0.534-0.73,0.658-1.214h2.379C120.186,40.904,120.003,41.456,119.739,41.93z"/>
		<path d="M129.147,43.97V38.94h-4.065v5.028h-2.348V31.957h2.348v4.894h4.065v-4.894h2.347v12.015L129.147,43.97L129.147,43.97z"/>
		<path d="M143.186,37.962c0,0.518-0.006,1.001-0.017,1.451c-0.012,0.45-0.054,0.872-0.127,1.265
			c-0.073,0.394-0.191,0.762-0.354,1.105c-0.163,0.343-0.396,0.667-0.7,0.97c-0.428,0.428-0.901,0.754-1.426,0.979
			c-0.521,0.225-1.127,0.337-1.813,0.337c-0.687,0-1.294-0.112-1.823-0.337s-1.006-0.551-1.434-0.979
			c-0.306-0.303-0.538-0.626-0.701-0.97c-0.163-0.344-0.278-0.711-0.347-1.105c-0.065-0.393-0.105-0.815-0.116-1.265
			c-0.014-0.45-0.02-0.934-0.02-1.451s0.006-1.001,0.02-1.451c0.011-0.45,0.05-0.872,0.116-1.266
			c0.067-0.393,0.185-0.762,0.347-1.104c0.164-0.343,0.396-0.667,0.701-0.97c0.427-0.428,0.903-0.754,1.434-0.979
			c0.529-0.225,1.137-0.337,1.823-0.337c0.686,0,1.291,0.112,1.813,0.337c0.523,0.225,0.999,0.551,1.426,0.979
			c0.306,0.303,0.537,0.627,0.7,0.97c0.163,0.343,0.281,0.711,0.354,1.104c0.073,0.395,0.115,0.816,0.127,1.266
			C143.18,36.96,143.186,37.444,143.186,37.962z M140.841,37.962c0-0.574-0.008-1.048-0.025-1.426
			c-0.017-0.377-0.048-0.689-0.093-0.937c-0.045-0.247-0.105-0.447-0.186-0.599s-0.176-0.29-0.287-0.414
			c-0.169-0.191-0.379-0.346-0.633-0.464c-0.255-0.118-0.542-0.177-0.869-0.177s-0.619,0.059-0.877,0.177
			c-0.26,0.118-0.475,0.273-0.643,0.464c-0.11,0.124-0.205,0.262-0.276,0.414c-0.073,0.152-0.135,0.352-0.179,0.599
			c-0.045,0.248-0.074,0.56-0.093,0.937c-0.017,0.377-0.023,0.852-0.023,1.426c0,0.573,0.008,1.049,0.023,1.426
			c0.019,0.376,0.048,0.689,0.093,0.936c0.044,0.248,0.104,0.447,0.179,0.599c0.071,0.151,0.166,0.29,0.276,0.414
			c0.168,0.19,0.383,0.345,0.643,0.463c0.259,0.118,0.551,0.179,0.877,0.179s0.614-0.061,0.869-0.179
			c0.254-0.118,0.464-0.272,0.633-0.463c0.11-0.124,0.208-0.262,0.287-0.414c0.079-0.152,0.141-0.352,0.186-0.599
			c0.045-0.247,0.076-0.56,0.093-0.936S140.841,38.537,140.841,37.962z"/>
		<path d="M154.475,37.962c0,0.518-0.006,1.001-0.017,1.451c-0.013,0.45-0.055,0.872-0.126,1.265
			c-0.073,0.394-0.192,0.762-0.354,1.105c-0.164,0.343-0.396,0.667-0.701,0.97c-0.428,0.428-0.901,0.754-1.426,0.979
			c-0.521,0.225-1.128,0.337-1.813,0.337c-0.688,0-1.293-0.112-1.822-0.337s-1.007-0.551-1.436-0.979
			c-0.304-0.303-0.536-0.626-0.699-0.97c-0.164-0.344-0.279-0.711-0.348-1.105c-0.065-0.393-0.105-0.815-0.115-1.265
			c-0.014-0.45-0.02-0.934-0.02-1.451s0.006-1.001,0.02-1.451c0.01-0.45,0.05-0.872,0.115-1.266
			c0.067-0.393,0.185-0.762,0.348-1.104c0.163-0.343,0.396-0.667,0.699-0.97c0.429-0.428,0.905-0.754,1.436-0.979
			c0.529-0.225,1.136-0.337,1.822-0.337c0.686,0,1.291,0.112,1.813,0.337c0.523,0.225,0.999,0.551,1.426,0.979
			c0.306,0.303,0.537,0.627,0.701,0.97c0.162,0.343,0.281,0.711,0.354,1.104c0.071,0.395,0.113,0.816,0.126,1.266
			C154.469,36.96,154.475,37.444,154.475,37.962z M152.129,37.962c0-0.574-0.008-1.048-0.025-1.426
			c-0.017-0.377-0.048-0.689-0.093-0.937c-0.045-0.247-0.106-0.447-0.185-0.599c-0.079-0.152-0.176-0.29-0.287-0.414
			c-0.169-0.191-0.38-0.346-0.635-0.464c-0.253-0.118-0.543-0.177-0.867-0.177c-0.326,0-0.619,0.059-0.878,0.177
			c-0.26,0.118-0.474,0.273-0.643,0.464c-0.112,0.124-0.205,0.262-0.278,0.414c-0.071,0.152-0.132,0.352-0.177,0.599
			c-0.045,0.248-0.076,0.56-0.093,0.937s-0.025,0.852-0.025,1.426c0,0.573,0.011,1.049,0.025,1.426
			c0.017,0.376,0.048,0.689,0.093,0.936c0.045,0.248,0.104,0.447,0.177,0.599c0.073,0.151,0.166,0.29,0.278,0.414
			c0.169,0.19,0.383,0.345,0.643,0.463c0.259,0.118,0.552,0.179,0.878,0.179c0.324,0,0.614-0.061,0.867-0.179
			c0.255-0.118,0.466-0.272,0.635-0.463c0.11-0.124,0.208-0.262,0.287-0.414c0.077-0.152,0.14-0.352,0.185-0.599
			c0.045-0.247,0.077-0.56,0.093-0.936C152.121,39.013,152.129,38.537,152.129,37.962z"/>
		<path d="M157.292,43.97V31.957h2.346v9.922h5.45v2.093L157.292,43.97L157.292,43.97z"/>
		<path d="M180.224,37.962c0,0.518-0.005,1.001-0.017,1.451c-0.013,0.45-0.055,0.872-0.126,1.265
			c-0.073,0.394-0.191,0.762-0.354,1.105c-0.163,0.343-0.396,0.667-0.7,0.97c-0.428,0.428-0.901,0.754-1.426,0.979
			c-0.521,0.225-1.128,0.337-1.813,0.337c-0.688,0-1.294-0.112-1.823-0.337s-1.007-0.551-1.436-0.979
			c-0.304-0.303-0.536-0.626-0.698-0.97c-0.163-0.344-0.278-0.711-0.348-1.105c-0.065-0.393-0.105-0.815-0.116-1.265
			c-0.013-0.45-0.019-0.934-0.019-1.451s0.005-1.001,0.019-1.451c0.011-0.45,0.051-0.872,0.116-1.266
			c0.068-0.393,0.185-0.762,0.348-1.104c0.163-0.343,0.396-0.667,0.698-0.97c0.429-0.428,0.905-0.754,1.436-0.979
			c0.529-0.225,1.136-0.337,1.823-0.337c0.686,0,1.291,0.112,1.813,0.337c0.523,0.225,0.998,0.551,1.426,0.979
			c0.306,0.303,0.537,0.627,0.7,0.97c0.163,0.343,0.281,0.711,0.354,1.104c0.071,0.395,0.114,0.816,0.126,1.266
			C180.219,36.96,180.224,37.444,180.224,37.962z M177.879,37.962c0-0.574-0.008-1.048-0.025-1.426
			c-0.017-0.377-0.048-0.689-0.093-0.937c-0.045-0.247-0.107-0.447-0.186-0.599c-0.079-0.152-0.177-0.29-0.287-0.414
			c-0.168-0.191-0.38-0.346-0.635-0.464c-0.253-0.118-0.543-0.177-0.867-0.177c-0.327,0-0.619,0.059-0.877,0.177
			c-0.261,0.118-0.474,0.273-0.644,0.464c-0.112,0.124-0.205,0.262-0.278,0.414c-0.071,0.152-0.132,0.352-0.177,0.599
			c-0.044,0.248-0.076,0.56-0.092,0.937c-0.018,0.377-0.025,0.852-0.025,1.426c0,0.573,0.009,1.049,0.025,1.426
			c0.017,0.376,0.048,0.689,0.092,0.936c0.045,0.248,0.104,0.447,0.177,0.599c0.073,0.151,0.167,0.29,0.278,0.414
			c0.169,0.19,0.382,0.345,0.644,0.463c0.258,0.118,0.551,0.179,0.877,0.179c0.324,0,0.614-0.061,0.867-0.179
			c0.255-0.118,0.466-0.272,0.635-0.463c0.11-0.124,0.208-0.262,0.287-0.414c0.076-0.152,0.141-0.352,0.186-0.599
			c0.044-0.247,0.076-0.56,0.093-0.936S177.879,38.537,177.879,37.962z"/>
		<path d="M185.387,34.047V37h4.742v2.092h-4.742v4.876h-2.345V31.957h7.914v2.092L185.387,34.047L185.387,34.047z"/>
		<path d="M206.295,43.97v-7.002L204,41.522h-1.586l-2.313-4.557v7.002h-2.346V31.957h2.312l3.141,6.497l3.122-6.497h2.312v12.015
			L206.295,43.97L206.295,43.97z"/>
		<path d="M220.19,41.59c-0.229,0.518-0.547,0.96-0.945,1.324c-0.4,0.365-0.868,0.648-1.403,0.854
			c-0.535,0.202-1.113,0.304-1.733,0.304s-1.196-0.102-1.731-0.304c-0.536-0.203-1.003-0.486-1.404-0.854
			c-0.399-0.364-0.715-0.808-0.946-1.324c-0.229-0.517-0.347-1.097-0.347-1.738v-7.897h2.346v7.813c0,0.698,0.188,1.24,0.559,1.627
			c0.371,0.39,0.877,0.583,1.519,0.583c0.644,0,1.15-0.193,1.527-0.583c0.376-0.387,0.563-0.93,0.563-1.627v-7.813h2.348v7.897
			C220.536,40.495,220.421,41.074,220.19,41.59z"/>
		<path d="M231.319,40.437c0,0.583-0.113,1.1-0.346,1.548c-0.229,0.449-0.545,0.828-0.944,1.138
			c-0.399,0.309-0.868,0.543-1.408,0.705s-1.125,0.243-1.757,0.243c-0.909,0-1.723-0.114-2.438-0.347
			c-0.715-0.23-1.364-0.645-1.949-1.24l1.521-1.518c0.382,0.382,0.819,0.646,1.314,0.792s1.023,0.22,1.585,0.22
			c0.698,0,1.229-0.127,1.586-0.379c0.36-0.253,0.541-0.622,0.541-1.105c0-0.438-0.124-0.776-0.372-1.012
			c-0.124-0.112-0.262-0.2-0.414-0.262c-0.15-0.062-0.366-0.115-0.647-0.16l-1.451-0.203c-1.023-0.146-1.8-0.478-2.329-0.995
			c-0.574-0.574-0.858-1.361-0.858-2.363c0-0.54,0.095-1.032,0.284-1.477c0.192-0.444,0.47-0.827,0.827-1.147
			c0.36-0.32,0.799-0.571,1.316-0.751c0.519-0.18,1.103-0.27,1.755-0.27c0.833,0,1.558,0.107,2.177,0.321
			c0.618,0.214,1.188,0.574,1.704,1.08l-1.485,1.468c-0.382-0.36-0.789-0.588-1.223-0.684c-0.434-0.096-0.848-0.144-1.241-0.144
			c-0.63,0-1.096,0.15-1.399,0.45c-0.305,0.3-0.456,0.659-0.456,1.077c0,0.159,0.026,0.312,0.085,0.458
			c0.055,0.147,0.146,0.283,0.269,0.408c0.124,0.113,0.279,0.211,0.464,0.296c0.188,0.085,0.403,0.145,0.65,0.178l1.417,0.203
			c0.552,0.079,1.007,0.194,1.367,0.346c0.357,0.151,0.669,0.345,0.928,0.581c0.327,0.303,0.563,0.668,0.709,1.094
			C231.245,39.415,231.319,39.896,231.319,40.437z"/>
		<path d="M233.951,43.97V31.957h2.345v12.015L233.951,43.97L233.951,43.97z"/>
		<path d="M247.407,41.93c-0.266,0.471-0.592,0.867-0.979,1.189c-0.388,0.318-0.829,0.561-1.325,0.715
			c-0.494,0.159-1.018,0.237-1.566,0.237c-0.663,0-1.266-0.112-1.8-0.339c-0.532-0.225-1.015-0.551-1.439-0.978
			c-0.305-0.302-0.538-0.625-0.701-0.969c-0.162-0.344-0.278-0.711-0.346-1.105c-0.067-0.393-0.107-0.815-0.117-1.265
			c-0.012-0.45-0.02-0.934-0.02-1.451s0.008-1.001,0.02-1.451c0.01-0.45,0.05-0.872,0.117-1.266
			c0.065-0.393,0.184-0.762,0.346-1.104c0.163-0.343,0.396-0.667,0.701-0.97c0.427-0.428,0.907-0.754,1.439-0.979
			c0.534-0.225,1.137-0.337,1.8-0.337c0.563,0,1.089,0.079,1.576,0.236c0.489,0.158,0.93,0.396,1.315,0.718
			c0.389,0.32,0.715,0.717,0.979,1.189c0.264,0.472,0.445,1.023,0.549,1.653h-2.379c-0.124-0.483-0.346-0.888-0.658-1.214
			c-0.315-0.326-0.771-0.489-1.366-0.489c-0.327,0-0.617,0.057-0.869,0.169c-0.254,0.112-0.465,0.265-0.634,0.456
			c-0.112,0.124-0.208,0.261-0.286,0.413c-0.079,0.152-0.141,0.352-0.186,0.599s-0.076,0.563-0.095,0.945
			c-0.018,0.382-0.023,0.86-0.023,1.434c0,0.573,0.008,1.052,0.023,1.435c0.019,0.383,0.05,0.697,0.095,0.945
			c0.045,0.248,0.104,0.447,0.186,0.599c0.078,0.151,0.174,0.29,0.286,0.413c0.169,0.191,0.38,0.344,0.634,0.457
			c0.252,0.111,0.542,0.168,0.869,0.168c0.596,0,1.051-0.164,1.366-0.489c0.313-0.325,0.534-0.73,0.658-1.214h2.379
			C247.855,40.904,247.672,41.456,247.407,41.93z"/>
		<path d="M262.502,40.437c0,0.583-0.116,1.1-0.349,1.548c-0.229,0.449-0.546,0.828-0.943,1.138
			c-0.398,0.309-0.868,0.543-1.408,0.705s-1.125,0.243-1.756,0.243c-0.91,0-1.723-0.114-2.438-0.347
			c-0.715-0.229-1.361-0.645-1.947-1.24l1.519-1.518c0.383,0.382,0.821,0.646,1.316,0.792c0.492,0.146,1.021,0.22,1.587,0.22
			c0.695,0,1.226-0.127,1.585-0.379c0.358-0.253,0.541-0.622,0.541-1.105c0-0.438-0.125-0.776-0.371-1.012
			c-0.125-0.112-0.265-0.2-0.414-0.262c-0.152-0.062-0.368-0.115-0.649-0.16l-1.45-0.203c-1.022-0.146-1.801-0.478-2.328-0.995
			c-0.573-0.574-0.86-1.361-0.86-2.363c0-0.54,0.096-1.032,0.287-1.477c0.188-0.444,0.467-0.827,0.826-1.147
			c0.358-0.32,0.8-0.571,1.314-0.751c0.52-0.18,1.104-0.27,1.755-0.27c0.833,0,1.561,0.107,2.179,0.321
			c0.616,0.214,1.187,0.574,1.704,1.08l-1.484,1.468c-0.383-0.36-0.79-0.588-1.223-0.684c-0.436-0.096-0.849-0.144-1.241-0.144
			c-0.63,0-1.099,0.15-1.4,0.45c-0.303,0.3-0.456,0.659-0.456,1.077c0,0.159,0.028,0.312,0.085,0.458
			c0.058,0.147,0.146,0.283,0.271,0.408c0.123,0.113,0.275,0.211,0.463,0.296c0.186,0.085,0.402,0.145,0.65,0.178l1.417,0.203
			c0.552,0.079,1.007,0.194,1.365,0.346c0.36,0.152,0.669,0.345,0.93,0.581c0.325,0.303,0.563,0.668,0.709,1.094
			C262.429,39.415,262.502,39.896,262.502,40.437z"/>
		<path d="M269.724,34.047v9.921h-2.346v-9.921h-3.141v-2.092h8.623v2.092H269.724z"/>
		<path d="M283.517,41.59c-0.229,0.518-0.546,0.96-0.945,1.324c-0.398,0.365-0.867,0.648-1.401,0.854
			c-0.536,0.202-1.114,0.304-1.733,0.304c-0.621,0-1.197-0.102-1.731-0.304c-0.535-0.203-1.002-0.486-1.402-0.854
			c-0.401-0.364-0.716-0.808-0.947-1.324c-0.229-0.517-0.347-1.097-0.347-1.738v-7.897h2.346v7.813c0,0.698,0.188,1.24,0.559,1.627
			c0.372,0.39,0.878,0.583,1.519,0.583c0.643,0,1.15-0.193,1.526-0.583c0.377-0.387,0.564-0.93,0.564-1.627v-7.813h2.348v7.897
			C283.865,40.495,283.748,41.074,283.517,41.59z"/>
		<path d="M295.608,37.913c0,0.45,0,0.9,0,1.35c0,0.439-0.031,0.867-0.101,1.283c-0.066,0.417-0.188,0.815-0.354,1.199
			c-0.169,0.383-0.422,0.742-0.761,1.079c-0.394,0.395-0.863,0.684-1.408,0.868c-0.546,0.189-1.134,0.28-1.764,0.28h-4.336V31.957
			h4.336c0.63,0,1.218,0.093,1.764,0.278c0.545,0.186,1.017,0.476,1.408,0.869c0.339,0.338,0.592,0.692,0.761,1.063
			c0.168,0.372,0.287,0.76,0.354,1.165c0.065,0.405,0.101,0.827,0.101,1.265C295.608,37.022,295.608,37.461,295.608,37.913z
			 M293.263,37.913c0-0.45-0.006-0.84-0.017-1.172c-0.014-0.332-0.033-0.622-0.068-0.869c-0.033-0.248-0.083-0.456-0.15-0.625
			c-0.067-0.168-0.157-0.32-0.271-0.455c-0.202-0.248-0.444-0.433-0.728-0.557c-0.279-0.124-0.625-0.186-1.026-0.186h-1.772v7.831
			h1.772c0.401,0,0.747-0.063,1.026-0.188c0.281-0.123,0.523-0.309,0.728-0.557c0.214-0.27,0.351-0.647,0.413-1.13
			C293.233,39.521,293.263,38.825,293.263,37.913z"/>
		<path d="M298.427,43.97V31.957h2.345v12.015L298.427,43.97L298.427,43.97z"/>
		<path d="M303.993,43.97V31.957h7.913v2.092h-5.566v2.818h4.74v2.092h-4.74v2.919h5.566v2.092H303.993z"/>
		<path d="M322.388,40.437c0,0.583-0.115,1.1-0.347,1.548c-0.23,0.449-0.547,0.828-0.944,1.138
			c-0.399,0.309-0.869,0.543-1.409,0.705s-1.126,0.243-1.755,0.243c-0.911,0-1.724-0.114-2.438-0.347
			c-0.714-0.23-1.361-0.645-1.947-1.24l1.519-1.518c0.383,0.382,0.821,0.646,1.316,0.792c0.494,0.146,1.021,0.22,1.586,0.22
			c0.696,0,1.227-0.127,1.586-0.379c0.358-0.253,0.541-0.622,0.541-1.105c0-0.438-0.124-0.776-0.371-1.012
			c-0.125-0.112-0.263-0.2-0.414-0.262c-0.152-0.062-0.369-0.115-0.649-0.16l-1.449-0.203c-1.022-0.146-1.802-0.478-2.329-0.995
			c-0.573-0.574-0.86-1.361-0.86-2.363c0-0.54,0.097-1.032,0.287-1.477c0.188-0.444,0.466-0.827,0.826-1.147
			c0.359-0.32,0.799-0.571,1.314-0.751c0.52-0.18,1.104-0.27,1.755-0.27c0.833,0,1.561,0.107,2.179,0.321
			c0.617,0.214,1.187,0.574,1.704,1.08l-1.484,1.468c-0.383-0.36-0.79-0.588-1.223-0.684c-0.437-0.096-0.85-0.144-1.241-0.144
			c-0.631,0-1.098,0.15-1.4,0.45c-0.303,0.3-0.456,0.659-0.456,1.077c0,0.159,0.027,0.312,0.084,0.458
			c0.059,0.146,0.146,0.283,0.271,0.408c0.123,0.113,0.276,0.211,0.463,0.296c0.186,0.085,0.403,0.145,0.65,0.178l1.417,0.203
			c0.552,0.079,1.007,0.194,1.365,0.346c0.359,0.151,0.669,0.345,0.93,0.581c0.325,0.303,0.563,0.668,0.709,1.094
			C322.315,39.415,322.388,39.896,322.388,40.437z"/>
		<path d="M103.076,53.631v4.422h5.265v1.146h-5.265v5.299h-1.283V52.484h7.459v1.146H103.076L103.076,53.631z"/>
		<path d="M117.992,64.498l-0.963-2.715h-5.247l-0.963,2.715h-1.365l4.421-12.014h1.08l4.402,12.014H117.992z M114.432,54.324
			l-2.261,6.346h4.489L114.432,54.324z"/>
		<path d="M128.952,62.533c-0.243,0.443-0.548,0.818-0.911,1.121c-0.366,0.305-0.78,0.537-1.241,0.701
			c-0.461,0.162-0.961,0.244-1.501,0.244c-0.597,0-1.157-0.105-1.679-0.322c-0.523-0.211-0.987-0.521-1.394-0.926
			c-0.281-0.281-0.498-0.576-0.647-0.879c-0.153-0.303-0.267-0.643-0.338-1.02c-0.073-0.377-0.116-0.805-0.126-1.281
			c-0.014-0.48-0.019-1.039-0.019-1.68c0-0.643,0.005-1.201,0.019-1.682c0.01-0.479,0.053-0.906,0.126-1.281
			c0.071-0.377,0.185-0.719,0.338-1.021c0.149-0.305,0.366-0.596,0.647-0.877c0.405-0.404,0.869-0.715,1.394-0.93
			c0.521-0.213,1.083-0.318,1.679-0.318c0.54,0,1.04,0.08,1.501,0.244c0.461,0.162,0.875,0.396,1.241,0.699
			c0.363,0.305,0.668,0.678,0.911,1.123c0.24,0.443,0.411,0.947,0.515,1.51h-1.316c-0.155-0.742-0.482-1.334-0.979-1.771
			s-1.12-0.658-1.873-0.658c-0.396,0-0.774,0.074-1.14,0.223c-0.366,0.145-0.68,0.354-0.938,0.623
			c-0.191,0.189-0.343,0.396-0.455,0.617c-0.113,0.219-0.198,0.48-0.253,0.793c-0.057,0.309-0.093,0.68-0.11,1.111
			c-0.017,0.436-0.023,0.965-0.023,1.596s0.008,1.16,0.023,1.596c0.019,0.434,0.055,0.803,0.11,1.113
			c0.055,0.309,0.14,0.572,0.253,0.795c0.112,0.217,0.264,0.422,0.455,0.613c0.259,0.271,0.571,0.479,0.938,0.623
			c0.364,0.146,0.743,0.221,1.14,0.221c0.753,0,1.383-0.221,1.889-0.658c0.506-0.439,0.838-1.029,0.996-1.771h1.283
			C129.365,61.584,129.194,62.088,128.952,62.533z"/>
		<path d="M140.629,62.178c-0.209,0.502-0.501,0.932-0.878,1.291c-0.376,0.359-0.821,0.641-1.333,0.836
			c-0.515,0.195-1.072,0.295-1.681,0.295c-0.605,0-1.167-0.1-1.679-0.295s-0.953-0.477-1.325-0.836
			c-0.371-0.359-0.659-0.789-0.867-1.291c-0.208-0.498-0.313-1.049-0.313-1.645v-8.051h1.282v7.947c0,0.461,0.065,0.879,0.203,1.25
			c0.135,0.371,0.329,0.688,0.582,0.945c0.253,0.256,0.559,0.461,0.919,0.605c0.359,0.145,0.76,0.221,1.197,0.221
			c0.439,0,0.839-0.074,1.198-0.221c0.36-0.146,0.667-0.352,0.92-0.605c0.253-0.26,0.45-0.574,0.592-0.945
			c0.141-0.371,0.212-0.789,0.212-1.25v-7.947h1.28v8.051C140.941,61.129,140.837,61.68,140.629,62.178z"/>
		<path d="M144.67,64.498V52.484h1.283v10.867h6.142v1.146H144.67L144.67,64.498z"/>
		<path d="M156.938,53.631v10.867h-1.282V53.631h-3.477v-1.146h8.235v1.146H156.938z"/>
		<path d="M166.337,59.539v4.959h-1.282v-4.959l-3.578-7.055h1.384l2.835,5.756l2.803-5.756h1.384L166.337,59.539z"/>
		<path d="M184.746,58.492c0,0.643-0.006,1.199-0.019,1.68c-0.011,0.479-0.054,0.904-0.126,1.281
			c-0.073,0.377-0.186,0.717-0.338,1.021c-0.151,0.303-0.368,0.596-0.647,0.877c-0.405,0.404-0.866,0.715-1.385,0.928
			c-0.518,0.217-1.08,0.32-1.688,0.32c-1.214,0-2.239-0.416-3.071-1.248c-0.282-0.281-0.498-0.574-0.648-0.877
			c-0.151-0.305-0.266-0.645-0.339-1.021c-0.071-0.377-0.113-0.805-0.126-1.281c-0.012-0.479-0.017-1.037-0.017-1.68
			s0.005-1.201,0.017-1.68c0.013-0.479,0.055-0.906,0.126-1.283c0.073-0.377,0.188-0.717,0.339-1.02
			c0.15-0.305,0.366-0.596,0.648-0.877c0.832-0.832,1.856-1.25,3.071-1.25s2.239,0.418,3.07,1.25
			c0.28,0.281,0.497,0.572,0.648,0.877c0.153,0.303,0.265,0.645,0.338,1.02c0.073,0.377,0.115,0.807,0.126,1.283
			C184.74,57.291,184.746,57.852,184.746,58.492z M183.464,58.492c0-0.631-0.009-1.162-0.025-1.596
			c-0.018-0.434-0.054-0.803-0.108-1.104c-0.059-0.307-0.144-0.566-0.253-0.785c-0.113-0.219-0.267-0.426-0.456-0.615
			c-0.261-0.27-0.571-0.48-0.938-0.633c-0.365-0.152-0.745-0.229-1.139-0.229c-0.396,0-0.773,0.076-1.141,0.229
			c-0.364,0.15-0.678,0.361-0.937,0.633c-0.192,0.189-0.343,0.396-0.456,0.615s-0.197,0.479-0.253,0.785
			c-0.056,0.303-0.093,0.672-0.109,1.104c-0.018,0.434-0.023,0.965-0.023,1.596s0.008,1.16,0.023,1.596
			c0.019,0.434,0.055,0.803,0.109,1.104c0.057,0.307,0.141,0.564,0.253,0.785c0.112,0.219,0.264,0.424,0.456,0.615
			c0.259,0.271,0.571,0.479,0.937,0.635c0.365,0.148,0.745,0.229,1.141,0.229c0.394,0,0.772-0.076,1.139-0.229
			s0.678-0.363,0.938-0.635c0.189-0.191,0.343-0.396,0.456-0.615c0.109-0.221,0.194-0.479,0.253-0.785
			c0.056-0.303,0.092-0.672,0.108-1.104C183.455,59.652,183.464,59.123,183.464,58.492z"/>
		<path d="M189.471,53.631v4.422h5.265v1.146h-5.265v5.299h-1.283V52.484h7.459v1.146H189.471L189.471,53.631z"/>
		<path d="M204.303,53.631v4.422h5.265v1.146h-5.265v5.299h-1.283V52.484h7.459v1.146H204.303L204.303,53.631z"/>
		<path d="M213.229,64.498V52.484h1.282v12.014H213.229z"/>
		<path d="M226.07,64.498l-6.379-9.635v9.635h-1.28V52.484h1.214l6.378,9.602v-9.602h1.283v12.014H226.07z"/>
		<path d="M231.182,64.498V52.484h7.458v1.146h-6.175v4.236h5.264v1.145h-5.264v4.338h6.175v1.146h-7.458V64.498z"/>
		<path d="M253.355,64.498l-0.962-2.715h-5.247l-0.962,2.715h-1.367l4.421-12.014h1.08l4.404,12.014H253.355z M249.794,54.324
			l-2.261,6.346h4.486L249.794,54.324z"/>
		<path d="M263.986,64.498l-2.731-5.332h-2.885v5.332h-1.283V52.484h4.604c0.521,0,0.997,0.074,1.437,0.229
			c0.438,0.152,0.814,0.371,1.131,0.658c0.313,0.287,0.561,0.639,0.734,1.055c0.173,0.416,0.262,0.883,0.262,1.4
			c0,0.877-0.242,1.594-0.728,2.15c-0.481,0.559-1.112,0.914-1.89,1.072l2.852,5.449H263.986L263.986,64.498z M263.969,55.842
			c0-0.742-0.223-1.297-0.667-1.66c-0.444-0.367-1.021-0.551-1.729-0.551h-3.203v4.404h3.203c0.711,0,1.285-0.182,1.729-0.541
			C263.746,57.137,263.969,56.584,263.969,55.842z"/>
		<path d="M272.103,53.631v10.867h-1.283V53.631h-3.477v-1.146h8.235v1.146H272.103z"/>
		<path d="M285.483,61.191c0,0.527-0.099,1.004-0.294,1.426c-0.196,0.422-0.479,0.777-0.845,1.07
			c-0.365,0.293-0.805,0.52-1.316,0.676s-1.074,0.236-1.693,0.236c-0.899,0-1.671-0.123-2.313-0.371
			c-0.641-0.248-1.242-0.652-1.805-1.215l0.876-0.877c0.496,0.494,0.997,0.836,1.503,1.027s1.097,0.287,1.772,0.287
			c0.877,0,1.567-0.193,2.073-0.582s0.761-0.938,0.761-1.646c0-0.314-0.05-0.604-0.145-0.861c-0.097-0.258-0.239-0.473-0.432-0.641
			c-0.19-0.168-0.393-0.289-0.601-0.361s-0.528-0.146-0.97-0.213l-1.4-0.219c-0.955-0.156-1.691-0.461-2.211-0.912
			c-0.604-0.539-0.909-1.287-0.909-2.242c0-0.508,0.09-0.971,0.271-1.395c0.179-0.422,0.435-0.777,0.767-1.07
			c0.333-0.293,0.735-0.521,1.208-0.684c0.474-0.164,1.008-0.246,1.604-0.246c0.765,0,1.423,0.104,1.974,0.313
			c0.553,0.211,1.085,0.545,1.604,1.008l-0.826,0.824c-0.372-0.338-0.771-0.594-1.198-0.768c-0.429-0.176-0.963-0.264-1.604-0.264
			c-0.813,0-1.437,0.203-1.873,0.607c-0.439,0.404-0.659,0.945-0.659,1.621c0,0.607,0.182,1.068,0.542,1.383
			c0.19,0.158,0.429,0.293,0.716,0.404c0.287,0.113,0.589,0.197,0.903,0.254l1.313,0.201c0.281,0.045,0.531,0.094,0.751,0.145
			c0.223,0.051,0.414,0.109,0.583,0.178c0.168,0.066,0.323,0.145,0.466,0.229c0.141,0.084,0.271,0.186,0.396,0.295
			C285.146,59.387,285.483,60.18,285.483,61.191z"/>
		<path d="M108.797,85.031l-0.961-2.717h-5.249l-0.961,2.717h-1.367l4.42-12.016h1.081l4.404,12.016H108.797z M105.236,74.854
			l-2.262,6.348h4.489L105.236,74.854z"/>
		<path d="M119.427,85.031l-2.734-5.332h-2.885v5.332h-1.283V73.018h4.607c0.518,0,0.996,0.076,1.435,0.229
			c0.438,0.15,0.815,0.371,1.13,0.656c0.315,0.287,0.561,0.641,0.734,1.057s0.261,0.883,0.261,1.398c0,0.879-0.24,1.598-0.726,2.152
			c-0.483,0.557-1.113,0.914-1.889,1.07l2.851,5.449L119.427,85.031L119.427,85.031z M119.409,76.373
			c0-0.742-0.224-1.297-0.666-1.662c-0.444-0.363-1.021-0.547-1.729-0.547h-3.206v4.402h3.206c0.709,0,1.285-0.18,1.729-0.539
			C119.187,77.668,119.409,77.117,119.409,76.373z"/>
		<path d="M124.017,85.031V73.018h1.283v12.016h-1.283V85.031z"/>
		<path d="M136.436,81.725c0,0.527-0.1,1.004-0.295,1.426c-0.198,0.422-0.479,0.777-0.844,1.07c-0.366,0.293-0.805,0.52-1.316,0.676
			c-0.511,0.156-1.077,0.234-1.693,0.234c-0.9,0-1.671-0.121-2.313-0.369c-0.641-0.248-1.243-0.652-1.806-1.215l0.878-0.879
			c0.495,0.496,0.996,0.838,1.502,1.027c0.506,0.191,1.097,0.287,1.771,0.287c0.877,0,1.569-0.193,2.075-0.582
			s0.759-0.936,0.759-1.645c0-0.316-0.048-0.604-0.143-0.861c-0.096-0.258-0.24-0.471-0.431-0.641
			c-0.19-0.168-0.393-0.289-0.601-0.363c-0.208-0.072-0.529-0.143-0.971-0.211l-1.4-0.219c-0.956-0.158-1.691-0.461-2.21-0.91
			c-0.605-0.541-0.911-1.289-0.911-2.246c0-0.506,0.092-0.969,0.271-1.391c0.18-0.424,0.436-0.779,0.767-1.072
			c0.333-0.293,0.734-0.521,1.207-0.684c0.475-0.162,1.009-0.246,1.604-0.246c0.766,0,1.424,0.104,1.975,0.313
			s1.086,0.543,1.604,1.004l-0.827,0.826c-0.371-0.336-0.771-0.594-1.198-0.768c-0.428-0.174-0.961-0.264-1.603-0.264
			c-0.813,0-1.437,0.203-1.874,0.607c-0.439,0.406-0.659,0.945-0.659,1.621c0,0.605,0.181,1.066,0.541,1.385
			c0.189,0.156,0.43,0.291,0.717,0.404c0.287,0.109,0.587,0.195,0.902,0.252l1.315,0.203c0.281,0.045,0.531,0.092,0.75,0.145
			c0.222,0.049,0.414,0.109,0.582,0.176c0.169,0.068,0.324,0.145,0.464,0.229c0.143,0.084,0.273,0.186,0.397,0.297
			C136.098,79.918,136.436,80.709,136.436,81.725z"/>
		<path d="M143.068,74.164v10.867h-1.281V74.164h-3.478v-1.146h8.234v1.146H143.068z"/>
		<path d="M156.82,79.023c0,0.643-0.006,1.201-0.017,1.68s-0.054,0.904-0.126,1.281c-0.073,0.377-0.186,0.719-0.338,1.021
			c-0.152,0.305-0.368,0.598-0.649,0.879c-0.404,0.404-0.867,0.713-1.384,0.928c-0.518,0.215-1.08,0.32-1.688,0.32
			c-1.217,0-2.239-0.416-3.071-1.248c-0.281-0.281-0.498-0.574-0.65-0.879c-0.15-0.303-0.264-0.645-0.337-1.021
			s-0.116-0.803-0.126-1.281c-0.011-0.479-0.018-1.037-0.018-1.68c0-0.641,0.006-1.199,0.018-1.68
			c0.011-0.477,0.053-0.906,0.126-1.281c0.073-0.377,0.187-0.719,0.337-1.021c0.152-0.305,0.369-0.596,0.65-0.877
			c0.832-0.832,1.854-1.25,3.071-1.25c1.215,0,2.237,0.418,3.07,1.25c0.281,0.281,0.497,0.572,0.649,0.877
			c0.151,0.305,0.265,0.646,0.338,1.021s0.115,0.805,0.126,1.281C156.814,77.824,156.82,78.383,156.82,79.023z M155.538,79.023
			c0-0.631-0.011-1.162-0.026-1.594c-0.017-0.434-0.053-0.803-0.109-1.105c-0.058-0.305-0.141-0.564-0.254-0.785
			c-0.111-0.219-0.264-0.424-0.455-0.615c-0.26-0.271-0.57-0.48-0.937-0.633c-0.366-0.15-0.746-0.229-1.14-0.229
			c-0.395,0-0.773,0.076-1.141,0.229c-0.366,0.15-0.678,0.361-0.936,0.633c-0.192,0.191-0.346,0.396-0.456,0.615
			c-0.112,0.221-0.197,0.48-0.253,0.785c-0.059,0.305-0.095,0.674-0.11,1.105c-0.017,0.432-0.025,0.963-0.025,1.594
			s0.01,1.162,0.025,1.596s0.053,0.801,0.11,1.104c0.056,0.305,0.141,0.564,0.253,0.785c0.11,0.221,0.264,0.424,0.456,0.615
			c0.258,0.27,0.568,0.479,0.936,0.633c0.365,0.152,0.746,0.229,1.141,0.229c0.394,0,0.771-0.074,1.14-0.229
			c0.365-0.152,0.677-0.363,0.937-0.633c0.191-0.191,0.344-0.396,0.455-0.615c0.113-0.221,0.196-0.48,0.254-0.785
			s0.094-0.672,0.109-1.104C155.529,80.186,155.538,79.654,155.538,79.023z"/>
		<path d="M163.451,74.164v10.867h-1.282V74.164h-3.479v-1.146h8.234v1.146H163.451z"/>
		<path d="M169.594,85.031V73.018h1.283v10.867h6.142v1.145L169.594,85.031L169.594,85.031z"/>
		<path d="M179.685,85.031V73.018h7.458v1.146h-6.176v4.234h5.264v1.146h-5.264v4.338h6.176v1.145h-7.458V85.031z"/>
		<path d="M202.76,82.711c-0.209,0.5-0.501,0.93-0.878,1.289c-0.377,0.361-0.821,0.641-1.333,0.836
			c-0.512,0.197-1.072,0.295-1.679,0.295c-0.607,0-1.167-0.098-1.681-0.295c-0.512-0.195-0.954-0.475-1.323-0.836
			c-0.372-0.359-0.661-0.789-0.869-1.289c-0.208-0.502-0.313-1.051-0.313-1.646v-8.047h1.283v7.945c0,0.461,0.067,0.877,0.202,1.25
			c0.135,0.369,0.329,0.688,0.582,0.945c0.254,0.258,0.56,0.461,0.92,0.605c0.358,0.146,0.76,0.219,1.199,0.219
			c0.438,0,0.837-0.072,1.196-0.219c0.36-0.145,0.667-0.348,0.92-0.605c0.255-0.26,0.449-0.576,0.592-0.945
			c0.14-0.373,0.211-0.789,0.211-1.25v-7.945h1.28v8.047C203.072,81.662,202.968,82.209,202.76,82.711z"/>
		<path d="M214.461,85.031l-6.377-9.635v9.635h-1.283V73.018h1.215l6.378,9.602v-9.602h1.283v12.016h-1.216V85.031z"/>
		<path d="M219.574,85.031V73.018h1.281v12.016h-1.281V85.031z"/>
		<path d="M228.147,85.031H227.1l-3.949-12.016h1.352l3.122,9.721l3.122-9.721h1.351L228.147,85.031z"/>
		<path d="M234.39,85.031V73.018h7.458v1.146h-6.176v4.234h5.265v1.146h-5.265v4.338h6.176v1.145h-7.458V85.031L234.39,85.031z"/>
		<path d="M251.837,85.031l-2.732-5.332h-2.886v5.332h-1.283V73.018h4.606c0.519,0,0.996,0.076,1.435,0.229
			c0.438,0.15,0.815,0.371,1.131,0.656c0.316,0.287,0.562,0.641,0.733,1.057s0.263,0.883,0.263,1.398
			c0,0.879-0.243,1.598-0.726,2.152c-0.484,0.557-1.114,0.914-1.893,1.07l2.854,5.449L251.837,85.031L251.837,85.031z
			 M251.821,76.373c0-0.742-0.223-1.297-0.667-1.662c-0.441-0.363-1.02-0.547-1.729-0.547h-3.206v4.402h3.206
			c0.709,0,1.285-0.18,1.729-0.539C251.598,77.668,251.821,77.117,251.821,76.373z"/>
		<path d="M263.667,81.725c0,0.527-0.102,1.004-0.296,1.426c-0.198,0.422-0.479,0.777-0.847,1.07
			c-0.363,0.293-0.805,0.52-1.314,0.676c-0.513,0.156-1.076,0.234-1.695,0.234c-0.897,0-1.671-0.121-2.312-0.369
			c-0.644-0.248-1.243-0.652-1.808-1.215l0.877-0.879c0.495,0.496,0.996,0.838,1.503,1.027c0.507,0.191,1.099,0.287,1.771,0.287
			c0.878,0,1.57-0.193,2.076-0.582s0.76-0.936,0.76-1.645c0-0.316-0.049-0.604-0.146-0.861c-0.096-0.256-0.237-0.471-0.431-0.641
			c-0.189-0.168-0.391-0.289-0.6-0.363c-0.208-0.072-0.531-0.143-0.972-0.211l-1.398-0.219c-0.956-0.158-1.693-0.461-2.211-0.91
			c-0.606-0.541-0.911-1.289-0.911-2.246c0-0.506,0.09-0.969,0.271-1.391c0.182-0.424,0.438-0.779,0.77-1.072
			c0.332-0.293,0.732-0.521,1.207-0.684c0.472-0.162,1.006-0.246,1.602-0.246c0.768,0,1.424,0.104,1.977,0.313
			c0.552,0.209,1.086,0.543,1.604,1.004l-0.827,0.826c-0.37-0.336-0.771-0.594-1.195-0.768c-0.431-0.174-0.965-0.264-1.604-0.264
			c-0.81,0-1.435,0.203-1.873,0.607c-0.438,0.406-0.658,0.945-0.658,1.621c0,0.605,0.182,1.066,0.54,1.385
			c0.191,0.156,0.433,0.291,0.719,0.404c0.285,0.109,0.588,0.195,0.901,0.252l1.316,0.203c0.281,0.045,0.53,0.092,0.75,0.145
			c0.221,0.049,0.414,0.109,0.583,0.176c0.168,0.068,0.323,0.145,0.464,0.229s0.271,0.186,0.396,0.297
			C263.328,79.918,263.667,80.709,263.667,81.725z"/>
		<path d="M266.771,85.031V73.018h1.283v12.016h-1.283V85.031z"/>
		<path d="M275.478,74.164v10.867h-1.282V74.164h-3.477v-1.146h8.236v1.146H275.478z"/>
		<path d="M284.877,80.07v4.961h-1.282V80.07l-3.578-7.055h1.385l2.834,5.756l2.803-5.756h1.385L284.877,80.07z"/>
		<path d="M303.284,79.023c0,0.643-0.006,1.201-0.018,1.68c-0.011,0.479-0.054,0.904-0.127,1.281s-0.188,0.719-0.337,1.021
			c-0.152,0.305-0.368,0.598-0.649,0.879c-0.403,0.404-0.866,0.713-1.384,0.928s-1.079,0.32-1.688,0.32
			c-1.215,0-2.236-0.416-3.069-1.248c-0.28-0.281-0.497-0.574-0.649-0.879c-0.15-0.303-0.265-0.645-0.337-1.021
			c-0.071-0.377-0.114-0.803-0.128-1.281c-0.011-0.479-0.017-1.037-0.017-1.68c0-0.641,0.006-1.199,0.017-1.68
			c0.014-0.477,0.057-0.906,0.128-1.281c0.072-0.377,0.187-0.719,0.337-1.021c0.152-0.303,0.369-0.596,0.649-0.877
			c0.833-0.832,1.854-1.25,3.069-1.25c1.217,0,2.238,0.418,3.071,1.25c0.281,0.281,0.497,0.572,0.649,0.877
			c0.149,0.305,0.264,0.646,0.337,1.021s0.116,0.805,0.127,1.281C303.281,77.824,303.284,78.383,303.284,79.023z M302.003,79.023
			c0-0.631-0.011-1.162-0.025-1.594c-0.016-0.434-0.053-0.803-0.109-1.105c-0.057-0.305-0.141-0.564-0.254-0.785
			c-0.109-0.219-0.264-0.424-0.455-0.615c-0.258-0.271-0.568-0.48-0.936-0.633s-0.745-0.229-1.14-0.229
			c-0.396,0-0.773,0.076-1.141,0.229c-0.365,0.15-0.678,0.361-0.937,0.633c-0.191,0.191-0.344,0.396-0.456,0.615
			c-0.111,0.221-0.197,0.48-0.253,0.785c-0.058,0.305-0.094,0.674-0.108,1.105c-0.019,0.432-0.023,0.963-0.023,1.594
			s0.007,1.162,0.023,1.596s0.054,0.801,0.108,1.104s0.142,0.564,0.253,0.785c0.112,0.221,0.265,0.424,0.456,0.615
			c0.259,0.27,0.569,0.479,0.937,0.633c0.365,0.152,0.744,0.229,1.141,0.229c0.395,0,0.771-0.074,1.14-0.229
			c0.365-0.152,0.678-0.363,0.936-0.633c0.191-0.191,0.346-0.396,0.455-0.615c0.113-0.221,0.197-0.48,0.254-0.785
			c0.059-0.305,0.095-0.672,0.109-1.104C301.992,80.186,302.003,79.654,302.003,79.023z"/>
		<path d="M308.011,74.164v4.422h5.265v1.146h-5.265v5.299h-1.283V73.018h7.46v1.146H308.011L308.011,74.164z"/>
		<path d="M325.087,74.164v10.867h-1.283V74.164h-3.478v-1.146h8.234v1.146H325.087z"/>
		<path d="M338.215,85.031v-5.484h-5.704v5.484h-1.282V73.018h1.282V78.4h5.704v-5.383h1.279v12.016h-1.279V85.031z"/>
		<path d="M343.395,85.031V73.018h7.458v1.146h-6.176v4.234h5.266v1.146h-5.266v4.338h6.176v1.145h-7.458V85.031z"/>
		<path d="M361.18,81.725c0,0.527-0.1,1.004-0.295,1.426c-0.197,0.422-0.479,0.777-0.846,1.07c-0.365,0.293-0.805,0.52-1.315,0.676
			s-1.076,0.234-1.695,0.234c-0.897,0-1.67-0.121-2.312-0.369c-0.643-0.248-1.242-0.652-1.807-1.215l0.878-0.879
			c0.494,0.496,0.994,0.838,1.501,1.027c0.508,0.191,1.1,0.287,1.771,0.287c0.878,0,1.569-0.193,2.076-0.582
			c0.506-0.389,0.759-0.936,0.759-1.645c0-0.316-0.049-0.604-0.145-0.861s-0.238-0.471-0.431-0.641
			c-0.189-0.168-0.392-0.289-0.601-0.363c-0.207-0.072-0.53-0.143-0.97-0.211l-1.398-0.219c-0.957-0.158-1.695-0.461-2.212-0.91
			c-0.607-0.541-0.912-1.289-0.912-2.246c0-0.506,0.09-0.969,0.271-1.391c0.183-0.424,0.438-0.779,0.77-1.072
			c0.332-0.293,0.734-0.521,1.207-0.684s1.007-0.246,1.603-0.246c0.768,0,1.425,0.104,1.976,0.313
			c0.552,0.209,1.087,0.543,1.604,1.004l-0.827,0.826c-0.37-0.336-0.771-0.594-1.196-0.768c-0.43-0.174-0.961-0.264-1.604-0.264
			c-0.81,0-1.435,0.203-1.871,0.607c-0.438,0.406-0.658,0.945-0.658,1.621c0,0.605,0.181,1.066,0.539,1.385
			c0.19,0.156,0.432,0.291,0.719,0.404c0.288,0.109,0.588,0.195,0.901,0.252l1.316,0.203c0.281,0.045,0.531,0.092,0.749,0.145
			c0.221,0.049,0.415,0.109,0.584,0.176c0.168,0.068,0.323,0.145,0.463,0.229c0.141,0.084,0.273,0.186,0.396,0.297
			C360.843,79.918,361.18,80.709,361.18,81.725z"/>
		<path d="M371.423,81.725c0,0.527-0.102,1.004-0.296,1.426c-0.196,0.422-0.479,0.777-0.845,1.07
			c-0.364,0.293-0.805,0.52-1.314,0.676c-0.515,0.156-1.078,0.234-1.697,0.234c-0.899,0-1.669-0.121-2.311-0.369
			c-0.644-0.248-1.243-0.652-1.807-1.215l0.876-0.879c0.495,0.496,0.996,0.838,1.502,1.027c0.507,0.191,1.1,0.287,1.771,0.287
			c0.879,0,1.57-0.193,2.076-0.582s0.76-0.936,0.76-1.645c0-0.316-0.049-0.604-0.146-0.861c-0.095-0.258-0.235-0.471-0.43-0.641
			c-0.189-0.168-0.391-0.289-0.599-0.363c-0.21-0.072-0.532-0.143-0.973-0.211l-1.398-0.219c-0.956-0.158-1.693-0.461-2.21-0.91
			c-0.608-0.541-0.911-1.289-0.911-2.246c0-0.506,0.089-0.969,0.269-1.391c0.183-0.424,0.438-0.779,0.771-1.072
			c0.33-0.293,0.73-0.521,1.205-0.684c0.473-0.162,1.007-0.246,1.604-0.246c0.767,0,1.423,0.104,1.977,0.313
			c0.551,0.209,1.085,0.543,1.604,1.004l-0.827,0.826c-0.371-0.336-0.771-0.594-1.196-0.768c-0.43-0.174-0.964-0.264-1.604-0.264
			c-0.81,0-1.433,0.203-1.871,0.607c-0.438,0.406-0.659,0.945-0.659,1.621c0,0.605,0.183,1.066,0.54,1.385
			c0.191,0.156,0.434,0.291,0.719,0.404c0.286,0.109,0.588,0.195,0.901,0.252l1.316,0.203c0.281,0.045,0.531,0.092,0.751,0.145
			c0.219,0.049,0.413,0.109,0.581,0.176c0.17,0.068,0.323,0.145,0.466,0.229c0.141,0.084,0.271,0.186,0.396,0.297
			C371.086,79.918,371.423,80.709,371.423,81.725z"/>
		<path d="M381.531,85.031l-0.961-2.717h-5.249l-0.961,2.717h-1.368l4.422-12.016h1.08l4.404,12.016H381.531z M377.97,74.854
			l-2.261,6.348h4.486L377.97,74.854z"/>
		<path d="M385.26,85.031V73.018h1.282v10.867h6.143v1.145L385.26,85.031L385.26,85.031z"/>
		<path d="M402.859,79.023c0,0.643-0.005,1.201-0.017,1.68c-0.013,0.479-0.055,0.904-0.126,1.281
			c-0.073,0.377-0.188,0.719-0.337,1.021c-0.153,0.305-0.369,0.598-0.65,0.879c-0.405,0.404-0.866,0.713-1.383,0.928
			c-0.52,0.215-1.08,0.32-1.688,0.32c-1.215,0-2.236-0.416-3.069-1.248c-0.28-0.281-0.497-0.574-0.648-0.879
			c-0.153-0.303-0.267-0.645-0.338-1.021c-0.073-0.377-0.115-0.803-0.128-1.281c-0.011-0.479-0.019-1.037-0.019-1.68
			c0-0.641,0.008-1.199,0.019-1.68c0.013-0.477,0.055-0.906,0.128-1.281c0.071-0.377,0.185-0.719,0.338-1.021
			c0.151-0.305,0.368-0.596,0.648-0.877c0.833-0.832,1.854-1.25,3.069-1.25c1.216,0,2.238,0.418,3.071,1.25
			c0.281,0.281,0.497,0.572,0.65,0.877c0.148,0.305,0.264,0.646,0.337,1.021c0.071,0.375,0.113,0.805,0.126,1.281
			C402.854,77.824,402.859,78.383,402.859,79.023z M401.575,79.023c0-0.631-0.008-1.162-0.023-1.594
			c-0.019-0.434-0.057-0.803-0.11-1.105c-0.057-0.305-0.141-0.564-0.252-0.785c-0.113-0.219-0.266-0.424-0.456-0.615
			c-0.259-0.271-0.571-0.48-0.938-0.633c-0.365-0.15-0.745-0.229-1.141-0.229c-0.395,0-0.772,0.076-1.139,0.229
			c-0.365,0.15-0.678,0.361-0.938,0.633c-0.188,0.191-0.344,0.396-0.453,0.615c-0.112,0.221-0.197,0.48-0.256,0.785
			c-0.057,0.305-0.092,0.674-0.106,1.105c-0.02,0.432-0.026,0.963-0.026,1.594s0.009,1.162,0.026,1.596
			c0.017,0.434,0.052,0.801,0.106,1.104c0.059,0.305,0.144,0.564,0.256,0.785c0.109,0.221,0.265,0.424,0.453,0.615
			c0.261,0.27,0.571,0.479,0.938,0.633c0.364,0.152,0.744,0.229,1.139,0.229c0.396,0,0.773-0.074,1.141-0.229
			c0.364-0.152,0.679-0.363,0.938-0.633c0.19-0.191,0.343-0.396,0.456-0.615c0.111-0.221,0.195-0.48,0.252-0.785
			c0.056-0.305,0.094-0.672,0.11-1.104C401.57,80.186,401.575,79.654,401.575,79.023z"/>
		<path d="M413.962,85.031l-6.378-9.635v9.635h-1.282V73.018h1.215l6.378,9.602v-9.602h1.283v12.016h-1.216V85.031z"/>
		<path d="M419.073,85.031V73.018h1.283v12.016h-1.283V85.031z"/>
		<path d="M431.731,85.031l-3.661-6.396l-2.532,3.039v3.355h-1.279V73.018h1.279v6.9l5.604-6.9h1.569l-3.78,4.643l4.318,7.373
			h-1.519V85.031z"/>
		<path d="M435.645,85.031V73.018h1.284v12.016h-1.284V85.031z"/>
	</g>
</g>
</svg>
